# xmcd
# 
# Track frame offsets:
#     182
#     17205
#     33012
#     53147
#     71607
#     87952
#     102565
#     122205
#     141725
#     156670
#     176540
#     194627
#     212280
# 
# Disc length: 3060
# 
# Revision: 2
# Processed by: cddbd v1.5.2PL0 Copyright (c) Steve Scherf et al.
# Submitted via: fre:ac v1.1beta1pre2
# 
DISCID=c10bf20d
DTITLE=Various Artist - Reggae 200%
DYEAR=1994
DGENRE=Reggae
TTITLE0=Sweat (Inner Circle)
TTITLE1=Just The Two Of Us (Gran D'ance)
TTITLE2=Informer (Snow)
TTITLE3=Boom Shak A-Tack (Born Jamericans)
TTITLE4=Number2 (Terror Fabulous)
TTITLE5=Gang Lingo (Juice With Soul)
TTITLE6=Can U Read My Mind (Lt.Stitchie)
TTITLE7=Give It Up,Turn It Loose (En Vogue With Lt.Stitchie)
TTITLE8=You Din't Love Me (No,No,No) (Dawn Penn)
TTITLE9=Sprit Of Love (Majek Fashek)
TTITLE10=Hello Mama Africa (Garnett Silk)
TTITLE11=Children Of THe World (The Wailers Band)
TTITLE12=Bad Boys (Inner Circle)
EXTD=
EXTT0=
EXTT1=
EXTT2=
EXTT3=
EXTT4=
EXTT5=
EXTT6=
EXTT7=
EXTT8=
EXTT9=
EXTT10=
EXTT11=
EXTT12=
PLAYORDER=
